<svg xmlns="http://www.w3.org/2000/svg" viewBox="0 0 100 100" width="100" height="100">
  <!-- Deep space background -->
  <defs>
    <radialGradient id="spaceGradient" cx="50%" cy="50%" r="50%">
      <stop offset="0%" style="stop-color:#1a1a3e"/>
      <stop offset="70%" style="stop-color:#0f1a2e"/>
      <stop offset="100%" style="stop-color:#0a0a1e"/>
    </radialGradient>
    <filter id="glow">
      <feGaussianBlur stdDeviation="2" result="coloredBlur"/>
      <feMerge> 
        <feMergeNode in="coloredBlur"/>
        <feMergeNode in="SourceGraphic"/>
      </feMerge>
    </filter>
  </defs>
  
  <!-- Background -->
  <circle cx="50" cy="50" r="50" fill="url(#spaceGradient)"/>
  
  <!-- Background stars -->
  <circle cx="20" cy="25" r="0.8" fill="#ffffff" opacity="0.8"/>
  <circle cx="75" cy="20" r="0.5" fill="#ffffff" opacity="0.6"/>
  <circle cx="85" cy="40" r="0.7" fill="#ffffff" opacity="0.7"/>
  <circle cx="15" cy="70" r="0.6" fill="#ffffff" opacity="0.5"/>
  <circle cx="90" cy="75" r="0.8" fill="#ffffff" opacity="0.9"/>
  <circle cx="25" cy="85" r="0.4" fill="#ffffff" opacity="0.6"/>
  
  <!-- Nebula effect -->
  <circle cx="70" cy="30" r="15" fill="#4A90E2" opacity="0.3"/>
  <circle cx="25" cy="60" r="12" fill="#9013FE" opacity="0.25"/>
  
  <!-- Main star icon in center -->
  <g transform="translate(50,50)" filter="url(#glow)">
    <!-- Star shape -->
    <path d="M0,-20 L6,-6 L20,-6 L10,2 L16,16 L0,8 L-16,16 L-10,2 L-20,-6 L-6,-6 Z" 
          fill="#FFD700" stroke="#FFA500" stroke-width="1"/>
    <!-- Inner star highlight -->
    <path d="M0,-15 L4,-4 L15,-4 L7,1 L11,12 L0,6 L-11,12 L-7,1 L-15,-4 L-4,-4 Z" 
          fill="#FFFF99" opacity="0.8"/>
  </g>
  
  <!-- Sound waves emanating from star -->
  <g opacity="0.6">
    <circle cx="50" cy="50" r="25" fill="none" stroke="#00D4FF" stroke-width="1.5" opacity="0.4"/>
    <circle cx="50" cy="50" r="35" fill="none" stroke="#00D4FF" stroke-width="1" opacity="0.3"/>
    <circle cx="50" cy="50" r="42" fill="none" stroke="#00D4FF" stroke-width="0.8" opacity="0.2"/>
  </g>
</svg>